<svg xmlns="http://www.w3.org/2000/svg" viewBox="0 0 1600 900">
  <!-- Gradient definitions -->
  <defs>
    <linearGradient id="bgGradient" x1="0%" y1="0%" x2="100%" y2="100%">
      <stop offset="0%" style="stop-color:#1a0f30;stop-opacity:1" />
      <stop offset="100%" style="stop-color:#2d1810;stop-opacity:1" />
    </linearGradient>
    
    <!-- Glow effects -->
    <filter id="redGlow">
      <feGaussianBlur stdDeviation="3" result="coloredBlur"/>
      <feMerge>
        <feMergeNode in="coloredBlur"/>
        <feMergeNode in="SourceGraphic"/>
      </feMerge>
    </filter>
    
    <!-- Maze pattern -->
    <pattern id="mazePattern" width="100" height="100" patternUnits="userSpaceOnUse">
      <path d="M10 10 L90 10 L90 90 L10 90" stroke="#332255" fill="none" stroke-width="1" opacity="0.2"/>
    </pattern>
  </defs>
  
  <!-- Background -->
  <rect width="1600" height="900" fill="url(#bgGradient)"/>
  <rect width="1600" height="900" fill="url(#mazePattern)"/>
  
  <!-- Warning strips in corners -->
  <path d="M0 0 L200 0 L0 200 Z" fill="#FF0000" opacity="0.1"/>
  <path d="M1600 0 L1400 0 L1600 200 Z" fill="#FF0000" opacity="0.1"/>
  <path d="M0 900 L200 900 L0 700 Z" fill="#FF0000" opacity="0.1"/>
  <path d="M1600 900 L1400 900 L1600 700 Z" fill="#FF0000" opacity="0.1"/>
  
  <!-- Escape room door -->
  <g transform="translate(300, 300)">
    <rect x="-100" y="-150" width="200" height="300" fill="none" stroke="#CC9933" stroke-width="4"/>
    <circle cx="80" cy="0" r="15" fill="#CC9933"/> <!-- Door handle -->
    <!-- Keyhole -->
    <path d="M-20 0 A 20 20 0 1 0 20 0 L0 40 L-10 30 Z" fill="#CC9933"/>
  </g>
  
  <!-- Puzzle elements -->
  <g transform="translate(1200, 400)">
    <!-- Jigsaw piece -->
    <path d="M0 0 L80 0 Q 100 0 100 20 L100 80 Q 100 100 80 100 L0 100 Q -20 100 -20 80 L-20 20 Q -20 0 0 0" 
          fill="none" stroke="#33CC99" stroke-width="3"/>
    <!-- Inner details -->
    <path d="M20 20 L60 20 L60 60 L20 60 Z" fill="none" stroke="#33CC99" stroke-width="2"/>
  </g>
  
  <!-- Elimination cross -->
  <g transform="translate(1000, 200)" filter="url(#redGlow)">
    <path d="M-40 -40 L40 40" stroke="#FF3333" stroke-width="8"/>
    <path d="M40 -40 L-40 40" stroke="#FF3333" stroke-width="8"/>
  </g>
  
  <!-- Timer element -->
  <g transform="translate(200, 600)">
    <circle cx="0" cy="0" r="50" fill="none" stroke="#FF6600" stroke-width="3"/>
    <path d="M0 -50 A 50 50 0 0 1 43.3 25" stroke="#FF6600" stroke-width="6"/>
  </g>
  
  <!-- Main title with dramatic styling - moved down -->
  <!-- Shadow layer -->
  <text x="803" y="403" font-family="Arial Black, sans-serif" font-size="72" fill="#000000" text-anchor="middle" opacity="0.5">ESCAPE</text>
  <text x="800" y="400" font-family="Arial Black, sans-serif" font-size="72" fill="#FF6600" text-anchor="middle">ESCAPE</text>
  
  <text x="803" y="503" font-family="Arial Black, sans-serif" font-size="72" fill="#000000" text-anchor="middle" opacity="0.5">ROOM</text>
  <text x="800" y="500" font-family="Arial Black, sans-serif" font-size="72" fill="#CC3333" text-anchor="middle">ROOM</text>
  
  <!-- Warning subtitle - moved down -->
  <text x="800" y="550" font-family="Arial, sans-serif" font-size="28" fill="#FFFFFF" text-anchor="middle">One Wrong Move • No Second Chances</text>
  
  <!-- Decorative elements -->
  <!-- Question marks with elimination -->
  <g transform="translate(500, 700)">
    <text x="0" y="0" font-family="Arial Black" font-size="40" fill="#FFFFFF" opacity="0.6">?</text>
    <path d="M-20 -20 L20 20" stroke="#FF3333" stroke-width="2" opacity="0.6"/>
  </g>
  
  <!-- Countdown numbers -->
  <text x="1400" y="600" font-family="Courier New" font-size="24" fill="#FF6600" opacity="0.8">3:00</text>
  
  <!-- Warning tape strips -->
  <path d="M0 100 L200 100" stroke="#FFD700" stroke-width="10" opacity="0.2"/>
  <path d="M1400 800 L1600 800" stroke="#FFD700" stroke-width="10" opacity="0.2"/>
</svg>
